<svg xmlns="http://www.w3.org/2000/svg" xmlns:xlink="http://www.w3.org/1999/xlink" viewBox="0 0 16 16"><g fill="none"><path d="M10.12 6.164L7.25 9.042L5.854 7.646l-.07-.057a.5.5 0 0 0-.638.765l1.75 1.75l.07.058a.5.5 0 0 0 .638-.059l3.224-3.233l.058-.07a.5.5 0 0 0-.766-.636zM8.778 1.667a1 1 0 0 0-1.556 0l-.913 1.13l-1.402-.378a1 1 0 0 0-1.259.914l-.075 1.45l-1.356.52a1 1 0 0 0-.48 1.48L2.528 8l-.793 1.217a1 1 0 0 0 .481 1.48l1.357.52l.074 1.45a1 1 0 0 0 1.259.914l1.402-.377l.913 1.13a1 1 0 0 0 1.556 0l.913-1.13l1.402.377a1 1 0 0 0 1.259-.914l.075-1.45l1.356-.52a1 1 0 0 0 .48-1.48L13.473 8l.792-1.217a1 1 0 0 0-.48-1.48l-1.357-.52l-.075-1.45a1 1 0 0 0-1.258-.914l-1.403.377l-.913-1.13zM3.93 5.717a1 1 0 0 0 .641-.882l.075-1.45l1.403.377a1 1 0 0 0 1.037-.337L8 2.295l.913 1.13a1 1 0 0 0 1.037.337l1.403-.377l.075 1.45a1 1 0 0 0 .641.883l1.356.52l-.792 1.217a1 1 0 0 0 0 1.09l.793 1.218l-1.357.52a1 1 0 0 0-.641.882l-.075 1.45l-1.403-.377a1 1 0 0 0-1.037.337L8 13.705l-.913-1.13a1 1 0 0 0-1.037-.337l-1.403.377l-.075-1.45a1 1 0 0 0-.64-.883l-1.357-.52l.792-1.217a1 1 0 0 0 0-1.09l-.792-1.218l1.356-.52zm5.76-2.92l-.389.314l.389-.315z" fill="currentColor"></path></g></svg>