<svg id="Layer_1" data-name="Layer 1" xmlns="http://www.w3.org/2000/svg" viewBox="0 0 122.88 106.5"><title>free-return</title><path d="M116.63,6.86a2.79,2.79,0,0,1,1.79.34,2.79,2.79,0,0,1,1.66,2.55l.23,31.75a6.55,6.55,0,0,0-5.58-.43l-.19-26.58-17.38,11V67.8l-1,.57-3.31-5a6.64,6.64,0,0,0-1.26-1.53V26.27L69.1,23.4l-.41,11.86-9-6.13-9,5.09,1.33-13L36.81,19.28V51.49c-.29-.1-.59-.2-.89-.28a18.52,18.52,0,0,0-2.61-.54l-1.38-.18-.72-.08V16.11a2.8,2.8,0,0,1,1.68-2.62L63.05.23h0A2.84,2.84,0,0,1,64.53,0l52.1,6.84ZM19.68,54.5c-.22,1.07-.43,2.12-.62,3.16s-.42,2.09-.66,3.15l-7.31-.61-.29,2.16,6.3.86L16,68.47l-6-.64L8.68,78,0,77l3.9-24.6L19.68,54.5ZM41.54,65.81A11.24,11.24,0,0,1,41,68.19a7,7,0,0,1-1,1.9,6.93,6.93,0,0,1-1.51,1.5,11,11,0,0,1-2.1,1.22l3.09,7.8-7.9.46-1.65-7.64-2.13-.23-1.27,7.08-7.36-1c.41-2.59.82-5.18,1.22-7.74s.81-5.16,1.23-7.75c.2-1.31.4-2.6.6-3.89s.42-2.58.67-3.88a22.61,22.61,0,0,1,2.46-.42c.8-.08,1.6-.13,2.4-.14s1.6,0,2.4.11,1.64.16,2.48.27a13.74,13.74,0,0,1,3.71,1,10,10,0,0,1,3,2.06,8.32,8.32,0,0,1,1.89,3,7.94,7.94,0,0,1,.33,3.87Zm-7.73-.5a4.59,4.59,0,0,0,0-1.34,2.93,2.93,0,0,0-.45-1.12,2.68,2.68,0,0,0-.86-.81,3.37,3.37,0,0,0-1.31-.43,5.16,5.16,0,0,0-.67,0c-.22,0-.44,0-.65,0l-1.14,6.33.41,0a6.41,6.41,0,0,0,1.52,0,4.58,4.58,0,0,0,1.45-.4,3.21,3.21,0,0,0,1.13-.87,2.81,2.81,0,0,0,.59-1.42Zm28.28-5c-.21,1.06-.42,2.12-.62,3.15s-.42,2.1-.65,3.16L53.51,66l-.46,2.13,5.1.69-1.1,5.26-5.16-.53L51.38,76l4.25.58,3,.41c-.24,1.25-.48,2.48-.73,3.71s-.47,2.46-.7,3.69L42.42,82.72l3.9-24.6,15.77,2.15Zm18.84,2.56c-.21,1.06-.42,2.12-.62,3.15s-.42,2.1-.65,3.16l-7.31-.61-.47,2.13,5.1.69-1.09,5.26-5.16-.53-.51,2.47,4.24.58,3,.41c-.24,1.25-.48,2.48-.73,3.71s-.48,2.46-.7,3.69L61.26,85.28l3.9-24.6,15.77,2.15Zm-.2,36.86,6.48-32.94,6.58,9.9C107.94,71,115.88,61.6,117.07,47.18c11.62,20.32,4.56,38.55-10.17,49.22l6.7,10.1L80.73,99.69ZM90.34,9,73.87,18.38l20,2.55,15-9.46L90.34,9Zm-33.8,7.13,16-9.47-7.93-1L44.25,14.6l12.29,1.57Z"/></svg>